PathFileType	4	(X/Y/Z)	C:\Users\xlb\Desktop\20210112\20210112\bx_n_10_502.trc
DataRate	CameraRate	NumFrames	NumMarkers	Units	OrigDataRate	OrigDataStartFrame	OrigNumFrames
50.00	50.00	       5	43	mm	50.00	237	       473
Frame#	Time	Top.Head			R.Acromium			L.Acromium			Sternum			R.ASIS			L.ASIS			V.Sacral			R.Thigh.Upper			R.Thigh.Front			R.Thigh.Rear			R.Knee.Lat			R.Knee.Med			R.Shank.Upper			R.Shank.Front			R.Shank.Rear			R.Ankle.Lat			R.Midfoot.Lat			R.Toe.Lat			R.Toe.Tip			R.Toe.Med			R.Ankle.Med			R.Midfoot.Sup			R.Heel			L.Thigh.Upper			L.Thigh.Front			L.Thigh.Rear			L.Knee.Lat			L.Knee.Med			L.Shank.Upper			L.Shank.Front			L.Shank.Rear			L.Ankle.Lat			L.Midfoot.Lat			L.Toe.Lat			L.Toe.Tip			L.Toe.Med			L.Ankle.Med			L.Midfoot.Sup			L.Heel			origin1 front left			origin2 front right			origin 3 back right			origin 4 back leftt			
		X1	Y1	Z1	X2	Y2	Z2	X3	Y3	Z3	X4	Y4	Z4	X5	Y5	Z5	X6	Y6	Z6	X7	Y7	Z7	X8	Y8	Z8	X9	Y9	Z9	X10	Y10	Z10	X11	Y11	Z11	X12	Y12	Z12	X13	Y13	Z13	X14	Y14	Z14	X15	Y15	Z15	X16	Y16	Z16	X17	Y17	Z17	X18	Y18	Z18	X19	Y19	Z19	X20	Y20	Z20	X21	Y21	Z21	X22	Y22	Z22	X23	Y23	Z23	X24	Y24	Z24	X25	Y25	Z25	X26	Y26	Z26	X27	Y27	Z27	X28	Y28	Z28	X29	Y29	Z29	X30	Y30	Z30	X31	Y31	Z31	X32	Y32	Z32	X33	Y33	Z33	X34	Y34	Z34	X35	Y35	Z35	X36	Y36	Z36	X37	Y37	Z37	X38	Y38	Z38	X39	Y39	Z39	X40	Y40	Z40	X41	Y41	Z41	X42	Y42	Z42	X43	Y43	Z43	

237	4.720	-822.99158	119.11749	1841.47339	-777.75732	-52.31659	1547.52502	-775.20282	295.63919	1545.89673	-669.23431	116.18198	1366.08923	-633.27576	6.69387	1093.53516	-654.14764	250.97223	1073.91492	-845.04181	102.47509	1048.38879	-693.41833	-65.06596	879.55121	-611.94550	-1.29803	815.87628	-707.51233	-52.57140	762.73401	-717.82355	-29.73609	618.87189	-695.22784	77.66197	575.29645	-721.84595	-27.86138	570.76031	-668.70050	18.28736	521.64532	-763.13495	-40.54231	489.76120	-758.27972	-21.12540	207.40166	-649.71173	-70.18958	160.44527	-607.82416	-77.02650	156.68753	-550.01703	-31.48607	164.20784	-597.90234	22.51608	170.79752	-715.61957	67.72121	216.68153	-672.30554	50.72447	161.62546	-791.84192	38.15159	173.25601	-725.09467	291.27948	876.48077	-617.67938	224.78589	824.24316	-726.49072	276.41473	746.85876	-750.30469	257.59363	643.15002	-707.98663	151.96349	580.65668	-748.77441	254.24896	577.18671	-692.38092	212.85205	537.73126	-785.02209	263.23309	500.68869	-768.90387	229.54770	203.96379	-661.24792	299.44873	156.25320	-624.58612	308.08792	157.87990	-555.95313	257.19476	164.27725	-592.43048	222.45374	175.38672	-711.56024	157.83438	218.76474	-674.50433	174.90254	160.70135	-795.52307	179.30185	183.17642	-527.92407	303.90573	146.27356	-517.80420	-72.91528	142.90222	-875.75226	-78.81669	141.25412	-882.47302	296.16626	144.71725	
238	4.740	-821.46631	118.24342	1841.72131	-776.83008	-53.25537	1547.18042	-774.60150	294.87671	1546.14124	-668.86194	115.84897	1365.93750	-632.92542	6.52079	1093.71130	-654.52844	250.94554	1073.87061	-845.18927	102.27249	1048.50696	-693.52209	-65.24637	879.55273	-612.14166	-1.37595	815.82373	-707.66583	-52.75399	762.74188	-718.00140	-29.96887	618.92664	-695.51544	77.52748	575.20612	-721.90601	-27.94810	570.74402	-668.80444	18.15253	521.63129	-763.18994	-40.73802	489.72882	-758.34869	-21.25066	207.46992	-649.72473	-70.20872	160.44978	-607.81757	-77.02378	156.69441	-550.03888	-31.52761	164.27026	-597.94354	22.42123	170.91949	-715.65271	67.67529	216.75822	-672.30426	50.70158	161.70070	-791.90759	38.08930	173.23703	-725.57361	291.20511	876.57159	-618.05780	224.81548	824.28864	-726.91248	276.35693	746.89789	-750.77075	257.47156	643.12720	-708.15295	151.96825	580.60138	-749.05664	254.02194	577.05811	-692.69385	212.86011	537.77130	-785.26019	263.16147	500.60406	-768.91949	229.56329	203.96553	-661.27814	299.50690	156.23692	-624.58185	308.14612	157.89253	-555.96478	257.19110	164.24139	-592.49799	222.52791	175.47041	-711.57086	157.86987	218.80103	-674.49677	174.90495	160.74771	-795.52350	179.31871	183.18182	-527.92493	303.88754	146.27751	-517.82263	-72.92516	142.90785	-875.75891	-78.78783	141.29425	-882.46936	296.15872	144.69304	
239	4.760	-819.51160	117.22650	1842.03760	-775.70612	-54.25912	1546.86194	-773.77509	294.08249	1546.42749	-668.35510	115.47212	1365.78613	-632.64307	6.34731	1093.83423	-654.85803	250.92540	1073.82117	-845.35413	102.06889	1048.70178	-693.64648	-65.34880	879.57281	-612.33752	-1.41815	815.76013	-707.89471	-52.96598	762.79297	-718.22675	-30.18732	618.97015	-695.89459	77.39440	575.10864	-721.99200	-28.06636	570.79700	-668.96942	18.03986	521.59491	-763.31061	-40.90233	489.70026	-758.43286	-21.37772	207.54730	-649.74420	-70.22689	160.44218	-607.81195	-77.02851	156.69847	-550.08032	-31.57780	164.33530	-597.95905	22.30334	171.07568	-715.70569	67.61879	216.84848	-672.31018	50.65318	161.79417	-791.97620	38.04752	173.21860	-726.04645	291.12305	876.68286	-618.46606	224.81517	824.35406	-727.32867	276.28317	746.88843	-751.16968	257.47034	643.15991	-708.35889	151.98692	580.50989	-749.41040	253.78748	576.92426	-693.02954	212.82269	537.82324	-785.56018	263.10352	500.53775	-768.94110	229.60835	203.97095	-661.32068	299.58640	156.21277	-624.56500	308.22281	157.90317	-556.00299	257.21317	164.25740	-592.52460	222.59911	175.57156	-711.56781	157.92770	218.85109	-674.47803	174.91286	160.82144	-795.55933	179.31166	183.14813	-527.92542	303.88248	146.28107	-517.84467	-72.93111	142.90111	-875.75897	-78.78798	141.34923	-882.48596	296.15067	144.66956	
240	4.780	-817.06342	116.07838	1842.41150	-774.41382	-55.25927	1546.55701	-772.75439	293.25638	1546.76135	-667.74976	115.04824	1365.62317	-632.42871	6.17322	1093.90369	-655.07745	250.90401	1073.80200	-845.52130	101.85045	1048.94641	-693.78876	-65.39296	879.56592	-612.53650	-1.41828	815.68701	-708.15625	-53.17268	762.86096	-718.43951	-30.33832	618.98553	-696.28888	77.26765	575.04181	-722.09351	-28.19645	570.90918	-669.17932	17.98555	521.55750	-763.48816	-41.05645	489.66327	-758.51105	-21.45611	207.60422	-649.75989	-70.22802	160.41734	-607.81207	-77.02248	156.70270	-550.12244	-31.61197	164.36807	-597.94739	22.19948	171.21448	-715.75592	67.57919	216.90872	-672.32501	50.61975	161.88747	-792.03992	38.02190	173.19794	-726.49237	291.00476	876.75995	-618.85327	224.84264	824.40686	-727.75153	276.21652	746.84027	-751.48810	257.53430	643.23895	-708.58020	152.00940	580.41193	-749.80573	253.61545	576.84033	-693.34442	212.76060	537.86462	-785.90710	263.07181	500.50070	-768.96802	229.67813	203.96158	-661.37720	299.66895	156.18306	-624.55103	308.29633	157.91570	-556.05420	257.26639	164.33119	-592.53528	222.66887	175.66425	-711.54816	158.00671	218.91344	-674.45062	174.93312	160.88559	-795.61517	179.29045	183.09355	-527.92572	303.89444	146.28998	-517.85724	-72.93265	142.87994	-875.78802	-78.79975	141.38734	-882.50500	296.15704	144.67360	
241	4.800	-814.05200	114.82594	1842.85193	-772.97992	-56.20905	1546.24866	-771.54230	292.39758	1547.14844	-667.08954	114.57655	1365.41296	-632.28241	5.99828	1093.91931	-655.21667	250.86992	1073.81665	-845.67438	101.63007	1049.21912	-693.96735	-65.38517	879.48456	-612.73523	-1.39214	815.62280	-708.40381	-53.33732	762.91425	-718.60638	-30.40294	618.98236	-696.60638	77.15277	575.02649	-722.20801	-28.30233	571.01526	-669.40442	18.00283	521.52136	-763.69928	-41.18841	489.60806	-758.55988	-21.47596	207.60921	-649.76447	-70.21880	160.39343	-607.81866	-77.00160	156.70612	-550.14825	-31.60859	164.35063	-597.93146	22.13871	171.28876	-715.78821	67.57028	216.91930	-672.34088	50.62798	161.96069	-792.08929	38.00649	173.17578	-726.90564	290.87228	876.78491	-619.19336	224.91652	824.39325	-728.18256	276.18591	746.78802	-751.78143	257.57330	643.31927	-708.78845	152.00282	580.35406	-750.15674	253.54605	576.84045	-693.60468	212.70630	537.90082	-786.26306	263.04480	500.47098	-768.99292	229.75174	203.93204	-661.43121	299.74222	156.15691	-624.55524	308.34219	157.93935	-556.10120	257.33798	164.43307	-592.55933	222.72746	175.72704	-711.51312	158.09024	219.00029	-674.42841	174.96959	160.90430	-795.66504	179.27606	183.04987	-527.93054	303.92282	146.30052	-517.85913	-72.94125	142.86588	-875.85883	-78.80708	141.38060	-882.52106	296.17142	144.69507	
